<svg width="53" height="53" viewBox="0 0 53 53" fill="none" xmlns="http://www.w3.org/2000/svg">
<rect width="53" height="53" rx="11" fill="#CEE7DC"/>
<g clip-path="url(#clip0)">
<path d="M44.696 16.8359H44.3954V33.2081C44.3954 35.8718 42.2283 38.0389 39.5646 38.0389H11.0205V38.3395C11.0205 39.6735 12.1019 40.7549 13.4359 40.7549H44.696C46.03 40.7549 47.1114 39.6735 47.1114 38.3395V19.2513C47.1114 17.9173 46.03 16.8359 44.696 16.8359Z" fill="#34AC6D"/>
<path d="M41.9798 33.2081V14.6605C41.9798 13.3265 40.8984 12.2451 39.5644 12.2451H8.30428C6.97027 12.2451 5.88892 13.3265 5.88892 14.6605V33.2081C5.88892 34.542 6.97027 35.6235 8.30428 35.6235H39.5644C40.8983 35.6235 41.9798 34.5421 41.9798 33.2081ZM9.73748 16.4193H15.9924V18.8347H9.73748V16.4193ZM18.6678 23.966H9.73748V21.5507H18.6678V23.966ZM38.056 31.6998H35.6407V29.2844H38.056V31.6998Z" fill="#34AC6D"/>
</g>
<defs>
<clipPath id="clip0">
<rect width="41.2222" height="41.2222" fill="white" transform="translate(5.88892 5.88889)"/>
</clipPath>
</defs>
</svg>
