<svg width="31" height="31" viewBox="0 0 31 31" fill="none" xmlns="http://www.w3.org/2000/svg">
<path d="M24.5415 28.4167H6.45813C5.43042 28.4167 4.44479 28.0085 3.71809 27.2818C2.99139 26.5551 2.58313 25.5695 2.58313 24.5417V3.87507C2.58313 3.5325 2.71922 3.20396 2.96145 2.96172C3.20368 2.71949 3.53223 2.5834 3.8748 2.5834H21.9581C22.3007 2.5834 22.6292 2.71949 22.8715 2.96172C23.1137 3.20396 23.2498 3.5325 23.2498 3.87507V19.3751H28.4165V24.5417C28.4165 25.5695 28.0082 26.5551 27.2815 27.2818C26.5548 28.0085 25.5692 28.4167 24.5415 28.4167ZM23.2498 21.9584V24.5417C23.2498 24.8843 23.3859 25.2129 23.6281 25.4551C23.8703 25.6973 24.1989 25.8334 24.5415 25.8334C24.884 25.8334 25.2126 25.6973 25.4548 25.4551C25.697 25.2129 25.8331 24.8843 25.8331 24.5417V21.9584H23.2498ZM20.6665 25.8334V5.16674H5.16646V24.5417C5.16646 24.8843 5.30255 25.2129 5.54478 25.4551C5.78702 25.6973 6.11556 25.8334 6.45813 25.8334H20.6665ZM7.7498 9.04174H18.0831V11.6251H7.7498V9.04174ZM7.7498 14.2084H18.0831V16.7917H7.7498V14.2084ZM7.7498 19.3751H14.2081V21.9584H7.7498V19.3751Z" fill="#34AC6D"/>
</svg>
